{
  "title": "Mohenjo Daro (2016) - DVDScr - 1xCD - x264 - [DDR]",
  "uid": 15565763,
  "size": 738525344,
  "categoryP": "video",
  "categoryS": "movies",
  "magnet": "?xt=urn:btih:1e17d27b8ea8254aa6069bc19745927d908db237&amp;dn=Mohenjo+Daro+%282016%29+-+DVDScr+-+1xCD+-+x264+-+%5BDDR%5D&amp;tr=udp%3A%2F%2Ftracker.leechers-paradise.org%3A6969&amp;tr=udp%3A%2F%2Fzer0day.ch%3A1337&amp;tr=udp%3A%2F%2Fopen.demonii.com%3A1337&amp;tr=udp%3A%2F%2Ftracker.coppersurfer.tk%3A6969&amp;tr=udp%3A%2F%2Fexodus.desync.com%3A6969",
  "seeders": 99,
  "leechers": 34,
  "uploader": "SaM",
  "files": 3,
  "time": 1471196851,
  "description": "(Ashutosh Gowariker's)\r\n* Mohenjo Daro *\r\nDVDScr - 1xCD - x264\r\n(AAC Audio)\r\n*2016*\r\n \nhttp://extraimago.com/image/w7Nx \nhttp://extraimago.com/image/w7Nt \nhttp://extraimago.com/image/w7No \nhttp://extraimago.com/image/w7Nk \nhttp://extraimago.com/image/w7NH \nhttp://extraimago.com/image/w7NF \nhttp://extraimago.com/image/w7ND \nhttp://extraimago.com/image/w7N5 \nhttp://extraimago.com/image/w7Ng \nhttp://extraimago.com/image/w7NX \nhttp://extraimago.com/image/w7NP \nhttp://extraimago.com/image/w7NG\r\n\r\nSource : SCR @ junaid17(thanks!)\r\nFormat : Matroska\r\nFile size : 700 MiB\r\nDuration : 2h 34mn\r\n\r\nVideo\r\nFormat : AVC\r\nFormat/Info : Advanced Video Codec\r\nFormat profile :   \r\nBit rate : 565 Kbps\r\nWidth : 624 pixels\r\nHeight : 272 pixels\r\nDisplay aspect ratio : 2.25:1\r\nFrame rate mode : Constant\r\nFrame rate : 23.976 (24000/1001) fps\r\ncolor space : YUV\r\nBit depth : 8 bits\r\nScan type : Progressive\r\nStream size : 627 MiB (90%)\r\n\r\nAudio\r\nFormat : AAC\r\nFormat/Info : Advanced Audio Codec\r\nFormat profile : LC\r\nBit rate : 64.0 Kbps\r\nChannel(s) : 2 channels\r\nChannel positions : Front: L R\r\nSampling rate : 48.0 KHz\r\nFrame rate : 46.875 fps (1024 spf)\r\nStream size : 70.9 MiB (10%)\r\nLanguage : Hindi",
  "parsed": {
    "xt": "urn:btih:1e17d27b8ea8254aa6069bc19745927d908db237",
    "dn": "Mohenjo Daro (2016) - DVDScr - 1xCD - x264 - [DDR]",
    "tr": [
      "udp://exodus.desync.com:6969",
      "udp://open.demonii.com:1337",
      "udp://tracker.coppersurfer.tk:6969",
      "udp://tracker.leechers-paradise.org:6969",
      "udp://zer0day.ch:1337"
    ],
    "infoHash": "1e17d27b8ea8254aa6069bc19745927d908db237",
    "infoHashBuffer": {
      "type": "Buffer",
      "data": [
        30,
        23,
        210,
        123,
        142,
        168,
        37,
        74,
        166,
        6,
        155,
        193,
        151,
        69,
        146,
        125,
        144,
        141,
        178,
        55
      ]
    },
    "name": "Mohenjo Daro (2016) - DVDScr - 1xCD - x264 - [DDR]",
    "announce": [
      "udp://exodus.desync.com:6969",
      "udp://open.demonii.com:1337",
      "udp://tracker.coppersurfer.tk:6969",
      "udp://tracker.leechers-paradise.org:6969",
      "udp://zer0day.ch:1337"
    ],
    "urlList": []
  },
  "previous": 100,
  "peers": 44,
  "last_updated": "2016-12-26T18:15:05.666Z"
}